<?xml version="1.0" encoding="UTF-8" standalone="no"?>
<!-- Created with Inkscape (http://www.inkscape.org/) -->

<svg
   xmlns:dc="http://purl.org/dc/elements/1.1/"
   xmlns:cc="http://creativecommons.org/ns#"
   xmlns:rdf="http://www.w3.org/1999/02/22-rdf-syntax-ns#"
   xmlns:svg="http://www.w3.org/2000/svg"
   xmlns="http://www.w3.org/2000/svg"
   xmlns:sodipodi="http://sodipodi.sourceforge.net/DTD/sodipodi-0.dtd"
   xmlns:inkscape="http://www.inkscape.org/namespaces/inkscape"
   version="1.1"
   width="400"
   height="300"
   id="svg3004"
   xml:space="preserve"
   inkscape:version="0.48.4 r9939"
   sodipodi:docname="toradex_with_slogan_black-outlines.svg"><sodipodi:namedview
     pagecolor="#ffffff"
     bordercolor="#666666"
     borderopacity="1"
     objecttolerance="10"
     gridtolerance="10"
     guidetolerance="10"
     inkscape:pageopacity="0"
     inkscape:pageshadow="2"
     inkscape:window-width="1920"
     inkscape:window-height="1014"
     id="namedview48"
     showgrid="false"
     inkscape:zoom="0.834386"
     inkscape:cx="-295.97341"
     inkscape:cy="215.51875"
     inkscape:window-x="0"
     inkscape:window-y="27"
     inkscape:window-maximized="1"
     inkscape:current-layer="svg3004" /><metadata
     id="metadata3010"><rdf:RDF><cc:Work
         rdf:about=""><dc:format>image/svg+xml</dc:format><dc:type
           rdf:resource="http://purl.org/dc/dcmitype/StillImage" /><dc:title /></cc:Work></rdf:RDF></metadata><defs
     id="defs3008"><clipPath
       id="clipPath3020"><path
         d="m 0,0 2901.81,0 0,668 L 0,668 0,0 z"
         id="path3022" /></clipPath></defs><g
     transform="matrix(1.25,0,0,-1.25,21.04104,191.02133)"
     id="g3012"
     style="stroke-width:0.80000001;stroke-miterlimit:4;stroke-dasharray:none"><g
       transform="scale(0.1,0.1)"
       id="g3014"
       style="stroke-width:8;stroke-miterlimit:4;stroke-dasharray:none"><g
         id="g3016"
         style="stroke-width:8;stroke-miterlimit:4;stroke-dasharray:none"><g
           clip-path="url(#clipPath3020)"
           id="g3018"
           style="stroke-width:8;stroke-miterlimit:4;stroke-dasharray:none"><path
             d="m 174.785,391.609 c -23.984,0 -43.418,19.375 -43.418,43.282 0,23.91 19.434,43.285 43.418,43.285 23.985,0 43.438,-19.375 43.438,-43.285 0,-23.907 -19.453,-43.282 -43.438,-43.282 z m 131.367,0 c -23.984,0 -43.425,19.375 -43.425,43.282 0,23.91 19.441,43.285 43.425,43.285 22.832,0 41.563,-17.563 43.301,-39.883 -2.129,83.395 -68.945,149.832 -153.183,149.832 -70.391,0 -128.6216,-46.398 -147.0903,-110.32 -1.8867,0.23 -3.8086,0.371 -5.7617,0.371 C 19.4336,478.176 0,458.801 0,434.891 c 0,-23.907 19.4336,-43.282 43.418,-43.282 1.8554,0 3.6523,0.118 5.4492,0.332 18.1914,-64.296 77.0708,-110.449 147.4028,-110.449 84.265,0 152.07,66.231 153.222,150.512 -1.496,-22.563 -20.32,-40.395 -43.34,-40.395"
             id="path3024"
             style="fill:none;stroke:#000000;stroke-width:8;stroke-miterlimit:4;stroke-opacity:1;stroke-dasharray:none"
             inkscape:connector-curvature="0" /><path
             d="m 712.832,290.77 52.109,0 0,329.218 145.157,0 0,48.215 -322.293,0 -38.391,-48.215 163.418,0 0,-329.218"
             id="path3026"
             style="fill:none;stroke:#000000;stroke-width:8;stroke-miterlimit:4;stroke-opacity:1;stroke-dasharray:none"
             inkscape:connector-curvature="0" /><path
             d="m 997.363,327.258 c -61.406,0 -103.593,48.203 -103.593,107.554 0,58.735 42.187,107.559 103.593,107.559 61.417,0 103.607,-48.824 103.607,-107.559 0,-59.351 -42.19,-107.554 -103.607,-107.554 z m 0,260.867 c -85.605,0 -153.222,-68.621 -153.222,-153.937 0,-85.309 68.242,-152.696 153.222,-152.696 84.987,0 153.237,67.387 153.237,152.696 0,85.316 -67.62,153.937 -153.237,153.937"
             id="path3028"
             style="fill:none;stroke:#000000;stroke-width:8;stroke-miterlimit:4;stroke-opacity:1;stroke-dasharray:none"
             inkscape:connector-curvature="0" /><path
             d="m 2612.77,445.305 106.72,136.011 -62.07,0 -76.29,-98.925 -76.31,98.925 -60.78,0 106.08,-136.011 -124.07,-154.551 62.04,0 93.04,118.086 92.44,-118.086 60.16,0 -120.96,154.551"
             id="path3030"
             style="fill:none;stroke:#000000;stroke-width:8;stroke-miterlimit:4;stroke-opacity:1;stroke-dasharray:none"
             inkscape:connector-curvature="0" /><path
             d="m 437.512,478.176 c -23.977,0 -43.43,-19.375 -43.43,-43.285 0,-23.907 19.453,-43.282 43.43,-43.282 23.98,0 43.426,19.375 43.426,43.282 0,23.91 -19.446,43.285 -43.426,43.285"
             id="path3032"
             style="fill:none;stroke:#000000;stroke-width:8;stroke-miterlimit:4;stroke-opacity:1;stroke-dasharray:none"
             inkscape:connector-curvature="0" /><path
             d="m 568.879,478.176 c -23.984,0 -43.43,-19.375 -43.43,-43.285 0,-23.907 19.446,-43.282 43.43,-43.282 23.98,0 43.426,19.375 43.426,43.282 0,23.91 -19.446,43.285 -43.426,43.285"
             id="path3034"
             style="fill:none;stroke:#000000;stroke-width:8;stroke-miterlimit:4;stroke-opacity:1;stroke-dasharray:none"
             inkscape:connector-curvature="0" /><path
             d="m 1394.34,534.402 c 8.14,13.575 17.91,26.059 29,37.149 -20.82,10.605 -44.49,16.574 -69.75,16.574 -85.35,0 -152.81,-68.191 -153.21,-153.152 l 0.02,-144.219 49.6,0 0,144.219 c 0.07,58.648 42.25,107.398 103.59,107.398 14.82,0 28.5,-2.828 40.75,-7.969"
             id="path3036"
             style="fill:none;stroke:#000000;stroke-width:8;stroke-miterlimit:4;stroke-opacity:1;stroke-dasharray:none"
             inkscape:connector-curvature="0" /><path
             d="m 1569.86,542.371 c 61.35,0 103.54,-48.73 103.6,-107.891 -0.18,-59.199 -42.31,-107.222 -103.6,-107.222 -61.4,0 -103.59,48.203 -103.59,107.554 0,58.735 42.19,107.559 103.59,107.559 z m 0,-260.879 c 40.04,0 76.37,14.961 103.6,39.707 l 0,-30.445 49.61,0 0,143.434 c 0,85.316 -67.6,153.937 -153.21,153.937 -85.6,0 -153.22,-68.621 -153.22,-153.937 0,-85.309 68.22,-152.696 153.22,-152.696"
             id="path3038"
             style="fill:none;stroke:#000000;stroke-width:8;stroke-miterlimit:4;stroke-opacity:1;stroke-dasharray:none"
             inkscape:connector-curvature="0" /><path
             d="m 1918.36,327.258 c -61.41,0 -103.59,48.203 -103.59,107.554 0,58.735 42.18,107.559 103.59,107.559 61.39,0 103.52,-48.75 103.61,-107.559 0,-59.351 -42.17,-107.554 -103.61,-107.554 z m 153.2,109.176 0,231.738 -49.61,0 0,-120.074 c -27.15,24.879 -63.36,40.027 -103.59,40.027 -85.59,0 -153.22,-68.621 -153.22,-153.937 0,-85.309 68.26,-152.696 153.22,-152.696 84.98,0 153.24,67.387 153.24,152.696 l -0.04,2.246"
             id="path3040"
             style="fill:none;stroke:#000000;stroke-width:8;stroke-miterlimit:4;stroke-opacity:1;stroke-dasharray:none"
             inkscape:connector-curvature="0" /><path
             d="m 2276.45,542.371 c 52.46,0 90.89,-35.644 100.99,-82.676 l -201.99,0 c 10.06,47.032 48.51,82.676 101,82.676 z m 75.93,-182.383 c -18.26,-20.191 -44.61,-32.73 -75.93,-32.73 -52.68,0 -91.2,35.445 -101.12,82.965 l 252.52,0 c 1.17,7.812 1.8,15.8 1.8,23.965 0,85.316 -67.6,153.937 -153.2,153.937 -85.63,0 -153.25,-68.621 -153.25,-153.937 0,-85.309 68.25,-152.696 153.25,-152.696 58,0 108.26,31.43 134.25,78.496 l -58.32,0"
             id="path3042"
             style="fill:none;stroke:#000000;stroke-width:8;stroke-miterlimit:4;stroke-opacity:1;stroke-dasharray:none"
             inkscape:connector-curvature="0" /><path
             d="m 745.66,119.023 -8.398,5.997 c -9.004,6.406 -14.606,11.203 -14.606,22.414 0,15 12.203,20.593 23.203,20.593 7.403,0 14.004,-1.797 19.805,-5.195 l 1.199,13.602 c -3.797,2.199 -12.199,4.203 -22,4.203 -15.406,0 -37.011,-8.403 -37.011,-34.004 0,-15.012 7.003,-23.012 19.203,-32.016 l 8.605,-6.199 c 14.402,-10.6055 20.606,-17 20.606,-29.8047 0,-14.4024 -8.606,-23.0078 -23.61,-23.0078 -7.195,0 -15.398,1.4062 -25.004,7.207 l -1.199,-14.6094 c 7.801,-3.8008 17.203,-5.1953 25.809,-5.1953 23.203,0 38.8,15 38.8,37.4024 0,16.6015 -7.796,26.4058 -25.402,38.6128"
             id="path3044"
             style="fill:none;stroke:#000000;stroke-width:8;stroke-miterlimit:4;stroke-opacity:1;stroke-dasharray:none"
             inkscape:connector-curvature="0" /><path
             d="m 873.27,58.4062 -19.602,86.4178 -15.406,0 -19.606,-86.4178 -19.402,86.4178 -14.199,0 25.406,-99.6209 15.598,0 19.605,84.2229 19.203,-84.2229 15.606,0 25.406,99.6209 -13.004,0 -19.605,-86.4178"
             id="path3046"
             style="fill:none;stroke:#000000;stroke-width:8;stroke-miterlimit:4;stroke-opacity:1;stroke-dasharray:none"
             inkscape:connector-curvature="0" /><path
             d="m 926.254,166.836 13.4023,0 0,17.1953 -13.4023,0 0,-17.1953 z"
             id="path3048"
             style="fill:none;stroke:#000000;stroke-width:8;stroke-miterlimit:4;stroke-opacity:1;stroke-dasharray:none"
             inkscape:connector-curvature="0" /><path
             d="m 926.453,45.2031 13.0039,0 0,99.6211 -13.0039,0 0,-99.6211 z"
             id="path3050"
             style="fill:none;stroke:#000000;stroke-width:8;stroke-miterlimit:4;stroke-opacity:1;stroke-dasharray:none"
             inkscape:connector-curvature="0" /><path
             d="m 979.457,120.422 c 0,11.199 9.199,15 17.605,15 6.198,0 12.798,-1.399 18.598,-4.399 l 1.21,12.407 c -5.41,2.195 -13.61,3.394 -19.808,3.394 -15.007,0 -31.41,-8.203 -31.41,-27.398 0,-30.8127 41.008,-25.4104 41.008,-48.6174 0,-12.9961 -9.398,-16.4063 -17.805,-16.4063 -6.597,0 -16.597,2.0039 -23.8,6.0079 l -1.203,-13.4063 c 8.203,-3 15.207,-3.9961 24.605,-3.9961 18.203,0 31.803,10.3984 31.803,29.4024 0,30.6058 -40.803,25.4023 -40.803,48.0118"
             id="path3052"
             style="fill:none;stroke:#000000;stroke-width:8;stroke-miterlimit:4;stroke-opacity:1;stroke-dasharray:none"
             inkscape:connector-curvature="0" /><path
             d="m 1052.66,120.422 c 0,11.199 9.2,15 17.6,15 6.2,0 12.8,-1.399 18.6,-4.399 l 1.2,12.407 c -5.4,2.195 -13.6,3.394 -19.8,3.394 -15.01,0 -31.41,-8.203 -31.41,-27.398 0,-30.8127 41.01,-25.4104 41.01,-48.6174 0,-12.9961 -9.4,-16.4063 -17.8,-16.4063 -6.61,0 -16.61,2.0039 -23.81,6.0079 l -1.2,-13.4063 c 8.2,-3 15.21,-3.9961 24.61,-3.9961 18.2,0 31.8,10.3984 31.8,29.4024 0,30.6058 -40.8,25.4023 -40.8,48.0118"
             id="path3054"
             style="fill:none;stroke:#000000;stroke-width:8;stroke-miterlimit:4;stroke-opacity:1;stroke-dasharray:none"
             inkscape:connector-curvature="0" /><path
             d="m 1119.45,45.2031 15.8008,0 0,18.2031 -15.8008,0 0,-18.2031 z"
             id="path3056"
             style="fill:none;stroke:#000000;stroke-width:8;stroke-miterlimit:4;stroke-opacity:1;stroke-dasharray:none"
             inkscape:connector-curvature="0" /><path
             d="m 1215.64,108.418 42.22,0 0,12.004 -42.22,0 0,45.808 44.61,0 0,12.403 -58.61,0 0,-133.4299 60.82,0 0,12.4024 -46.82,0 0,50.8125"
             id="path3058"
             style="fill:none;stroke:#000000;stroke-width:8;stroke-miterlimit:4;stroke-opacity:1;stroke-dasharray:none"
             inkscape:connector-curvature="0" /><path
             d="m 1371.67,146.824 c -10.21,0 -17.81,-6.797 -24.01,-16.402 -4.2,10.601 -11,16.402 -23.01,16.402 -10.6,0 -19,-7 -23.2,-16.402 l -0.4,14.402 -12,0 c 0.6,-12.597 0.6,-20 0.6,-29.601 l 0,-70.0199 13,0 0,63.6129 c 0,11.407 7,26.407 18.81,26.407 13.2,0 15.4,-11.004 15.4,-21.602 l 0,-68.4179 12.8,0 0,63.6129 c 0,11.407 6.6,26.407 18.8,26.407 13.21,0 15.41,-11.004 15.41,-21.602 l 0,-68.4179 12.8,0 0,69.8169 c 0,19.804 -6.8,31.804 -25,31.804"
             id="path3060"
             style="fill:none;stroke:#000000;stroke-width:8;stroke-miterlimit:4;stroke-opacity:1;stroke-dasharray:none"
             inkscape:connector-curvature="0" /><path
             d="m 1463.85,54.4023 c -19.81,0 -22.4,24.8086 -22.4,41.0196 0,15.9961 3.79,40.0001 22.4,40.0001 19.21,0 21.61,-26.203 21.61,-40.0001 0,-13.6055 -3.2,-41.0196 -21.61,-41.0196 z m 2.4,92.4217 c -12,0 -19.2,-7.195 -24.2,-15.801 l 0,58.411 -13.01,0 0,-144.2309 12.21,0 0.4,13.6055 c 4.8,-9.4063 12.4,-15.8008 24.39,-15.8008 26.41,0 33.42,31.4063 33.42,52.4141 0,21.3941 -6.21,51.4021 -33.21,51.4021"
             id="path3062"
             style="fill:none;stroke:#000000;stroke-width:8;stroke-miterlimit:4;stroke-opacity:1;stroke-dasharray:none"
             inkscape:connector-curvature="0" /><path
             d="m 1533.04,102.812 c 0.6,13.606 7.59,33.008 23.41,33.008 15.6,0 18.2,-19.199 18.79,-33.008 l -42.2,0 z m 23.41,44.012 c -25.41,0 -37.01,-27.605 -37.01,-51.4021 0,-26.6133 11,-52.4141 42.01,-52.4141 7.4,0 15.6,1.3945 22.6,4.5977 l -0.8,12.5976 c -6.2,-3.9922 -13.4,-5.9922 -19.61,-5.9922 -23.2,0 -30.6,21.0039 -30.6,38.4063 l 55.21,0 0,3.9922 c 0,21.6136 -3.8,50.2146 -31.8,50.2146"
             id="path3064"
             style="fill:none;stroke:#000000;stroke-width:8;stroke-miterlimit:4;stroke-opacity:1;stroke-dasharray:none"
             inkscape:connector-curvature="0" /><path
             d="m 1643.05,54.4023 c -18.41,0 -21.61,27.4141 -21.61,41.0196 0,13.7971 2.2,40.0001 21.4,40.0001 18.61,0 22.4,-24.004 22.4,-40.0001 0,-16.211 -2.39,-41.0196 -22.19,-41.0196 z m 34.8,135.0317 -13.01,0 0,-58.411 c -5,8.606 -11.79,15.801 -23.8,15.801 -26.6,0 -33.61,-30.008 -33.61,-51.4021 0,-21.0078 7.01,-52.4141 33.41,-52.4141 12.21,0 20.41,7.8008 25.01,16.6016 l 0.6,-14.4063 12,0 c -0.6,11.0078 -0.6,18.4102 -0.6,29.4063 l 0,114.8246"
             id="path3066"
             style="fill:none;stroke:#000000;stroke-width:8;stroke-miterlimit:4;stroke-opacity:1;stroke-dasharray:none"
             inkscape:connector-curvature="0" /><path
             d="m 1739.84,54.4023 c -18.4,0 -21.61,27.4141 -21.61,41.0196 0,13.7971 2.21,40.0001 21.41,40.0001 18.6,0 22.4,-24.004 22.4,-40.0001 0,-16.211 -2.39,-41.0196 -22.2,-41.0196 z m 34.81,135.0317 -13.01,0 0,-58.411 c -5,8.606 -11.8,15.801 -23.8,15.801 -26.61,0 -33.61,-30.008 -33.61,-51.4021 0,-21.0078 7,-52.4141 33.41,-52.4141 12.2,0 20.41,7.8008 25.01,16.6016 l 0.59,-14.4063 12,0 c -0.59,11.0078 -0.59,18.4102 -0.59,29.4063 l 0,114.8246"
             id="path3068"
             style="fill:none;stroke:#000000;stroke-width:8;stroke-miterlimit:4;stroke-opacity:1;stroke-dasharray:none"
             inkscape:connector-curvature="0" /><path
             d="m 1814.03,102.812 c 0.6,13.606 7.6,33.008 23.41,33.008 15.6,0 18.2,-19.199 18.8,-33.008 l -42.21,0 z m 23.41,44.012 c -25.41,0 -37.01,-27.605 -37.01,-51.4021 0,-26.6133 11.01,-52.4141 42.01,-52.4141 7.4,0 15.6,1.3945 22.6,4.5977 l -0.8,12.5976 c -6.2,-3.9922 -13.4,-5.9922 -19.6,-5.9922 -23.2,0 -30.61,21.0039 -30.61,38.4063 l 55.22,0 0,3.9922 c 0,21.6136 -3.81,50.2146 -31.81,50.2146"
             id="path3070"
             style="fill:none;stroke:#000000;stroke-width:8;stroke-miterlimit:4;stroke-opacity:1;stroke-dasharray:none"
             inkscape:connector-curvature="0" /><path
             d="m 1924.03,54.4023 c -18.4,0 -21.61,27.4141 -21.61,41.0196 0,13.7971 2.21,40.0001 21.41,40.0001 18.6,0 22.4,-24.004 22.4,-40.0001 0,-16.211 -2.39,-41.0196 -22.2,-41.0196 z m 34.81,135.0317 -13.01,0 0,-58.411 c -5,8.606 -11.8,15.801 -23.8,15.801 -26.61,0 -33.61,-30.008 -33.61,-51.4021 0,-21.0078 7,-52.4141 33.41,-52.4141 12.2,0 20.41,7.8008 25.01,16.6016 l 0.59,-14.4063 12,0 c -0.59,11.0078 -0.59,18.4102 -0.59,29.4063 l 0,114.8246"
             id="path3072"
             style="fill:none;stroke:#000000;stroke-width:8;stroke-miterlimit:4;stroke-opacity:1;stroke-dasharray:none"
             inkscape:connector-curvature="0" /><path
             d="m 1992.22,45.2031 15.8125,0 0,18.2031 -15.8125,0 0,-18.2031 z"
             id="path3074"
             style="fill:none;stroke:#000000;stroke-width:8;stroke-miterlimit:4;stroke-opacity:1;stroke-dasharray:none"
             inkscape:connector-curvature="0" /><path
             d="m 2113.02,167.832 c 7.8,0 16,-2.004 21.8,-6.008 l 1.21,14.406 c -6.21,3.008 -13.8,4.407 -22.81,4.407 -37.6,0 -57.41,-32.414 -57.41,-68.821 0,-35.8004 17.4,-68.8082 57.01,-68.8082 8.8,0 16.4,1.3945 23,3.5938 l -1.19,13.8086 c -6.41,-3 -12.01,-4.6016 -21.41,-4.6016 -30.01,0 -42.6,29.4062 -42.6,55.8124 0,26.809 12.19,56.211 42.4,56.211"
             id="path3076"
             style="fill:none;stroke:#000000;stroke-width:8;stroke-miterlimit:4;stroke-opacity:1;stroke-dasharray:none"
             inkscape:connector-curvature="0" /><path
             d="m 2191.82,54.4023 c -20,0 -23.21,25.8125 -23.21,41.0196 0,14.5981 4.01,40.0001 23.21,40.0001 20.6,0 23.4,-24.602 23.4,-40.0001 0,-15.2071 -3.39,-41.0196 -23.4,-41.0196 z m 0,92.4217 c -27.01,0 -37.21,-27.801 -37.21,-51.4021 0,-24.0157 8.6,-52.4141 37.21,-52.4141 28.4,0 37.21,29.0039 37.21,52.4141 0,24.1951 -7.8,51.4021 -37.21,51.4021"
             id="path3078"
             style="fill:none;stroke:#000000;stroke-width:8;stroke-miterlimit:4;stroke-opacity:1;stroke-dasharray:none"
             inkscape:connector-curvature="0" /><path
             d="m 2337.64,146.824 c -10.21,0 -17.81,-6.797 -24.01,-16.402 -4.2,10.601 -11,16.402 -23,16.402 -10.61,0 -19.01,-7 -23.21,-16.402 l -0.4,14.402 -12,0 c 0.6,-12.597 0.6,-20 0.6,-29.601 l 0,-70.0199 13,0 0,63.6129 c 0,11.407 7.01,26.407 18.8,26.407 13.21,0 15.41,-11.004 15.41,-21.602 l 0,-68.4179 12.8,0 0,63.6129 c 0,11.407 6.61,26.407 18.8,26.407 13.21,0 15.41,-11.004 15.41,-21.602 l 0,-68.4179 12.81,0 0,69.8169 c 0,19.804 -6.81,31.804 -25.01,31.804"
             id="path3080"
             style="fill:none;stroke:#000000;stroke-width:8;stroke-miterlimit:4;stroke-opacity:1;stroke-dasharray:none"
             inkscape:connector-curvature="0" /><path
             d="m 2429.82,54.4023 c -19.8,0 -22.41,24.211 -22.41,41.0196 0,16.7971 4.01,40.0001 22.61,40.0001 19.21,0 21.41,-26.203 21.41,-40.0001 0,-13.6055 -3.21,-41.0196 -21.61,-41.0196 z m 2.01,92.4217 c -12.02,0 -20.01,-7.996 -24.82,-16.601 l -0.4,14.601 -12.2,0 c 0.6,-10.996 0.6,-18.601 0.6,-29.601 l 0,-113.23081 13.01,0 0,56.41401 c 4.79,-9.0039 12,-15.3984 24,-15.3984 26.41,0 33.41,31.4063 33.41,52.4141 0,21.5981 -6.6,51.4021 -33.6,51.4021"
             id="path3082"
             style="fill:none;stroke:#000000;stroke-width:8;stroke-miterlimit:4;stroke-opacity:1;stroke-dasharray:none"
             inkscape:connector-curvature="0" /><path
             d="m 2555.02,144.824 -12.8,0 0,-63.406 c 0,-11.6055 -6.8,-26.8086 -21,-26.8086 -12.21,0 -16.81,10.1953 -16.81,21.8086 l 0,68.406 -13,0 0,-68.406 c 0,-17.6094 7,-33.4102 27.01,-33.4102 12,0 20.4,7.5977 25,16.3945 l 0.4,-14.1992 12,0 c -0.19,10.2071 -0.8,19.4063 -0.8,29.6094 l 0,70.0115"
             id="path3084"
             style="fill:none;stroke:#000000;stroke-width:8;stroke-miterlimit:4;stroke-opacity:1;stroke-dasharray:none"
             inkscape:connector-curvature="0" /><path
             d="m 2614.01,54.6094 c -9.6,0 -10.2,7 -10.2,14.4062 l 0,64.8124 19.61,0 0,10.996 -19.61,0 0,27.012 -12.8,-4.402 0,-22.61 -14.41,0 0,-10.996 14.41,0 0,-68.8163 c 0,-12.6094 4.8,-22.0039 19,-22.0039 5,0 9.6,0.8008 14,2.3906 l -1.2,12.2071 c -3,-1.5977 -5.59,-2.9961 -8.8,-2.9961"
             id="path3086"
             style="fill:none;stroke:#000000;stroke-width:8;stroke-miterlimit:4;stroke-opacity:1;stroke-dasharray:none"
             inkscape:connector-curvature="0" /><path
             d="m 2646.01,166.836 13.3867,0 0,17.1953 -13.3867,0 0,-17.1953 z"
             id="path3088"
             style="fill:none;stroke:#000000;stroke-width:8;stroke-miterlimit:4;stroke-opacity:1;stroke-dasharray:none"
             inkscape:connector-curvature="0" /><path
             d="m 2646.2,45.2031 13.0117,0 0,99.6211 -13.0117,0 0,-99.6211 z"
             id="path3090"
             style="fill:none;stroke:#000000;stroke-width:8;stroke-miterlimit:4;stroke-opacity:1;stroke-dasharray:none"
             inkscape:connector-curvature="0" /><path
             d="m 2728.61,146.824 c -12,0 -20.6,-7.597 -25.2,-16.402 l -0.4,14.402 -12,0 c 0.19,-10.195 0.59,-19.402 0.59,-29.601 l 0,-70.0199 13.01,0 0,63.4179 c 0,11.801 6.8,26.602 21.01,26.602 12.4,0 17.19,-9.801 17.19,-21.602 l 0,-68.4179 12.81,0 0,68.6129 c 0,17.61 -7.01,33.008 -27.01,33.008"
             id="path3092"
             style="fill:none;stroke:#000000;stroke-width:8;stroke-miterlimit:4;stroke-opacity:1;stroke-dasharray:none"
             inkscape:connector-curvature="0" /><path
             d="m 2817.41,56.6094 c -19.21,0 -21.21,24.1992 -21.21,38.8125 0,13.7971 2.4,40.0001 21.61,40.0001 18.8,0 22.2,-24.004 22.2,-40.0001 0,-15.4102 -1.8,-38.8125 -22.6,-38.8125 z m 22.8,74.4136 c -4.8,9.004 -12,15.801 -24.6,15.801 -26.41,0 -33.41,-30.008 -33.41,-51.4021 0,-22.4141 7,-50.2188 33.41,-50.2188 11.2,0 19,6.0078 24,14.8086 l 0,-5.6094 c 0,-18.2031 -0.2,-43.0078 -25,-43.0078 -9.4,0 -18.6,3 -26.61,7.6094 L 2786.8,5.39844 C 2796.2,2.39062 2805.01,0 2815.21,0 c 28.21,0 37.41,22.5977 37.41,48.2031 l 0,96.6209 -12.41,0 0,-13.801"
             id="path3094"
             style="fill:none;stroke:#000000;stroke-width:8;stroke-miterlimit:4;stroke-opacity:1;stroke-dasharray:none"
             inkscape:connector-curvature="0" /><path
             d="m 2886,45.2031 15.8086,0 0,18.2031 -15.8086,0 0,-18.2031 z"
             id="path3096"
             style="fill:none;stroke:#000000;stroke-width:8;stroke-miterlimit:4;stroke-opacity:1;stroke-dasharray:none"
             inkscape:connector-curvature="0" /></g></g></g></g></svg>